<svg xmlns="http://www.w3.org/2000/svg" xmlns:xlink="http://www.w3.org/1999/xlink" viewBox="0 0 50.79 50.56"><defs><style>.a{fill:none;}.b{clip-path:url(#a);}.c{clip-path:url(#b);}.d{fill:#fff;}</style><clipPath id="a" transform="translate(0 0.56)"><path class="a" d="M24.2,11.16a7.49,7.49,0,0,1,6.73,3.76q2.35,3.76,2.35,10.56,0,6.58-2.29,10.44a7.41,7.41,0,0,1-6.8,3.86A7.5,7.5,0,0,1,17.48,36q-2.36-3.75-2.36-10.55,0-6.6,2.29-10.46A7.42,7.42,0,0,1,24.2,11.16Zm0,25.8a4.55,4.55,0,0,0,4.29-2.74q1.4-2.74,1.4-8.74t-1.4-8.74a4.69,4.69,0,0,0-8.54.07q-1.41,2.79-1.41,8.67t1.4,8.72A4.53,4.53,0,0,0,24.2,37ZM24.12,22.55a2.9,2.9,0,0,1,2.93,2.93,3.05,3.05,0,0,1-.86,2.18,2.75,2.75,0,0,1-2.07.91,2.7,2.7,0,0,1-2-.91,3.08,3.08,0,0,1-.85-2.18,2.85,2.85,0,0,1,.83-2.09A2.78,2.78,0,0,1,24.12,22.55Z"/></clipPath><clipPath id="b" transform="translate(0 0.56)"><path class="a" d="M25,39.31a7.49,7.49,0,0,1-6.73-3.76Q15.92,31.79,15.92,25q0-6.58,2.29-10.44A7.41,7.41,0,0,1,25,10.69a7.5,7.5,0,0,1,6.72,3.75Q34.08,18.19,34.08,25q0,6.6-2.29,10.46A7.42,7.42,0,0,1,25,39.31Zm0-25.8a4.55,4.55,0,0,0-4.29,2.74Q19.32,19,19.32,25t1.4,8.74a4.69,4.69,0,0,0,8.54-.07q1.41-2.79,1.41-8.67t-1.4-8.72A4.53,4.53,0,0,0,25,13.51Zm0.08,14.41A2.9,2.9,0,0,1,22.15,25,3.05,3.05,0,0,1,23,22.81a2.75,2.75,0,0,1,2.07-.91,2.7,2.7,0,0,1,2,.91A3.08,3.08,0,0,1,28,25a2.85,2.85,0,0,1-.83,2.09A2.78,2.78,0,0,1,25.08,27.92Z"/></clipPath></defs><title>divide-zero</title><g class="b"><polygon points="50 0.56 0 50.56 0 0.56 50 0.56"/></g><g class="c"><polygon class="d" points="0.79 50 50.79 0 50.79 50 0.79 50"/></g></svg>